:FULLY-SPECIFIED
:FORCE-ALL-JOINTS-BE-3DOF
:DEGREES
2548
root 4.05349 13.7339 -23.8981 949.486 83.1412 -133.036
lfemur -38.0857 11.7346 -11.9816
ltibia 90.0003 0 0
lfoot -27.6436 25.8668 0
ltoes -39.1078 0 0
rfemur -56.9319 -24.5034 9.63782
rtibia 63.3376 0 0
rfoot 1.37338 7.56111 0
rtoes 8.15737 0 0
lowerback 16.7267 -0.402112 -3.41953
upperback -1.07476 -0.858229 3.10669
thorax -10.5181 -0.0903389 5.57701
lowerneck 5.14049 -14.599 -15.1379
upperneck 0.0934526 -20.4364 14.8302
head 2.29472 -10.3645 6.17043
lclavicle -2.77598e-14 1.59445e-14 0
lhumerus -52.6002 -45.2505 114.561
lradius 107.444 0 0
lwrist 81.7366 0 0
lhand 8.95464 400.173 0
lfingers 7.12502 0 0
lthumb 34.1332 -653.082 0
rclavicle -2.77598e-14 1.59445e-14 0
rhumerus 9.22774 -14.8964 -59.7081
rradius 76.0911 0 0
rwrist 27.6857 0 0
rhand -38.3052 -408.649 0
rfingers 7.12502 0 0
rthumb -11.3328 281.709 0
2549
root 4.01128 13.7477 -24.0363 950.302 82.7591 -132.27
lfemur -38.1369 11.7193 -12.0437
ltibia 89.9819 0 0
lfoot -27.6341 25.9091 0
ltoes -39.0837 0 0
rfemur -56.9518 -24.4302 9.71132
rtibia 63.5091 0 0
rfoot 1.31895 7.39494 0
rtoes 8.15834 0 0
lowerback 16.7421 -0.39066 -3.42337
upperback -1.0694 -0.845538 3.09969
thorax -10.523 -0.0843815 5.56826
lowerneck 5.14107 -14.5988 -15.1374
upperneck 0.0856638 -20.4374 14.8594
head 2.29578 -10.3653 6.17904
lclavicle -2.76877e-14 1.6044e-14 0
lhumerus -52.3962 -45.3718 114.492
lradius 107.372 0 0
lwrist 81.6672 0 0
lhand 8.91851 400.194 0
lfingers 7.12502 0 0
lthumb 34.0988 -653.055 0
rclavicle -2.76877e-14 1.6044e-14 0
rhumerus 9.51826 -14.6375 -59.5012
rradius 76.16 0 0
rwrist 27.5412 0 0
rhand -38.2077 -408.57 0
rfingers 7.12502 0 0
rthumb -11.2387 281.787 0
2550
root 3.96908 13.7614 -24.1744 950.978 82.4309 -131.636
lfemur -38.1782 11.7151 -12.0961
ltibia 89.9631 0 0
lfoot -27.6312 25.9424 0
ltoes -39.0626 0 0
rfemur -56.9674 -24.374 9.77415
rtibia 63.6575 0 0
rfoot 1.2694 7.25476 0
rtoes 8.15996 0 0
lowerback 16.7549 -0.381088 -3.42896
upperback -1.06532 -0.835416 3.09393
thorax -10.5274 -0.079474 5.56258
lowerneck 5.14124 -14.5988 -15.1373
upperneck 0.0805959 -20.4386 14.8834
head 2.29719 -10.3662 6.18602
lclavicle -2.76078e-14 1.60984e-14 0
lhumerus -52.2241 -45.4718 114.435
lradius 107.312 0 0
lwrist 81.6102 0 0
lhand 8.88809 400.214 0
lfingers 7.12502 0 0
lthumb 34.0698 -653.029 0
rclavicle -2.76078e-14 1.60984e-14 0
rhumerus 9.76459 -14.4188 -59.3289
rradius 76.2236 0 0
rwrist 27.4278 0 0
rhand -38.1253 -408.503 0
rfingers 7.12502 0 0
rthumb -11.1591 281.852 0
2551
root 3.92687 13.7752 -24.3126 951.541 82.1432 -131.107
lfemur -38.2115 11.722 -12.141
ltibia 89.943 0 0
lfoot -27.635 25.968 0
ltoes -39.0435 0 0
rfemur -56.9792 -24.3328 9.82889
rtibia 63.7887 0 0
rfoot 1.22265 7.13488 0
rtoes 8.16232 0 0
lowerback 16.7654 -0.373011 -3.43657
upperback -1.06237 -0.827465 3.08921
thorax -10.5314 -0.0754195 5.55976
lowerneck 5.141 -14.5991 -15.1376
upperneck 0.0780692 -20.44 14.903
head 2.29899 -10.3671 6.19165
lclavicle -2.75166e-14 1.61093e-14 0
lhumerus -52.0766 -45.5545 114.385
lradius 107.261 0 0
lwrist 81.5633 0 0
lhand 8.86212 400.232 0
lfingers 7.12502 0 0
lthumb 34.045 -653.006 0
rclavicle -2.75166e-14 1.61093e-14 0
rhumerus 9.97673 -14.2316 -59.1843
rradius 76.2844 0 0
rwrist 27.3412 0 0
rhand -38.0546 -408.446 0
rfingers 7.12502 0 0
rthumb -11.0909 281.909 0
2552
root 3.88466 13.7889 -24.4508 952.019 81.8827 -130.659
lfemur -38.2382 11.7398 -12.1805
ltibia 89.9207 0 0
lfoot -27.6453 25.9871 0
ltoes -39.0255 0 0
rfemur -56.988 -24.3042 9.87809
rtibia 63.909 0 0
rfoot 1.17664 7.02963 0
rtoes 8.1655 0 0
lowerback 16.7744 -0.366042 -3.44648
upperback -1.06039 -0.821283 3.08528
thorax -10.5352 -0.0720215 5.5596
lowerneck 5.14035 -14.5996 -15.1385
upperneck 0.0779042 -20.4417 14.9192
head 2.30127 -10.3681 6.19621
lclavicle -2.74104e-14 1.60784e-14 0
lhumerus -51.947 -45.6238 114.342
lradius 107.216 0 0
lwrist 81.5244 0 0
lhand 8.83939 400.252 0
lfingers 7.12502 0 0
lthumb 34.0234 -652.982 0
rclavicle -2.74104e-14 1.60784e-14 0
rhumerus 10.1647 -14.067 -59.0605
rradius 76.3451 0 0
rwrist 27.2768 0 0
rhand -37.9924 -408.395 0
rfingers 7.12502 0 0
rthumb -11.0308 281.958 0
2553
root 3.84246 13.8027 -24.589 952.438 81.6359 -130.265
lfemur -38.26 11.7686 -12.2166
ltibia 89.8955 0 0
lfoot -27.6622 26.0012 0
ltoes -39.0077 0 0
rfemur -56.9943 -24.2862 9.9243
rtibia 64.0242 0 0
rfoot 1.1293 6.93332 0
rtoes 8.16957 0 0
lowerback 16.7822 -0.359795 -3.45895
upperback -1.05922 -0.816472 3.08192
thorax -10.539 -0.0690832 5.5619
lowerneck 5.13929 -14.6004 -15.1398
upperneck 0.0799212 -20.4438 14.933
head 2.30409 -10.3692 6.19997
lclavicle -2.72858e-14 1.60074e-14 0
lhumerus -51.8282 -45.6837 114.302
lradius 107.176 0 0
lwrist 81.491 0 0
lhand 8.81866 400.272 0
lfingers 7.12502 0 0
lthumb 34.0036 -652.958 0
rclavicle -2.72858e-14 1.60074e-14 0
rhumerus 10.3384 -13.9161 -58.9505
rradius 76.4084 0 0
rwrist 27.2303 0 0
rhand -37.9352 -408.348 0
rfingers 7.12502 0 0
rthumb -10.9756 282.004 0
2554
root 3.80025 13.8165 -24.7272 952.825 81.3894 -129.901
lfemur -38.2787 11.8084 -12.2516
ltibia 89.8666 0 0
lfoot -27.6857 26.0115 0
ltoes -38.9894 0 0
rfemur -56.9988 -24.2766 9.97009
rtibia 64.1406 0 0
rfoot 1.07855 6.8403 0
rtoes 8.17461 0 0
lowerback 16.7894 -0.353885 -3.47425
upperback -1.05871 -0.812632 3.07889
thorax -10.543 -0.0664077 5.56646
lowerneck 5.13783 -14.6015 -15.1415
upperneck 0.0839406 -20.4463 14.9453
head 2.30751 -10.3706 6.20322
lclavicle -2.71391e-14 1.5898e-14 0
lhumerus -51.7132 -45.7384 114.264
lradius 107.137 0 0
lwrist 81.4609 0 0
lhand 8.7987 400.294 0
lfingers 7.12502 0 0
lthumb 33.9846 -652.932 0
rclavicle -2.71391e-14 1.5898e-14 0
rhumerus 10.508 -13.7701 -58.8474
rradius 76.4769 0 0
rwrist 27.1971 0 0
rhand -37.8797 -408.303 0
rfingers 7.12502 0 0
rthumb -10.922 282.049 0
2555
root 3.75804 13.8302 -24.8654 953.209 81.13 -129.541
lfemur -38.2957 11.8591 -12.2875
ltibia 89.833 0 0
lfoot -27.7156 26.0193 0
ltoes -38.9696 0 0
rfemur -57.002 -24.2732 10.018
rtibia 64.2641 0 0
rfoot 1.02234 6.74486 0
rtoes 8.18071 0 0
lowerback 16.7964 -0.347924 -3.49264
upperback -1.0587 -0.809361 3.07597
thorax -10.5473 -0.0637985 5.57307
lowerneck 5.13596 -14.6028 -15.1437
upperneck 0.0897829 -20.4493 14.9572
head 2.31159 -10.3721 6.20622
lclavicle -2.69669e-14 1.5752e-14 0
lhumerus -51.5951 -45.7917 114.225
lradius 107.097 0 0
lwrist 81.4319 0 0
lhand 8.77828 400.319 0
lfingers 7.12502 0 0
lthumb 33.9651 -652.904 0
rclavicle -2.69669e-14 1.5752e-14 0
rhumerus 10.6833 -13.62 -58.7442
rradius 76.5534 0 0
rwrist 27.1729 0 0
rhand -37.8227 -408.256 0
rfingers 7.12502 0 0
rthumb -10.867 282.095 0
2556
root 3.71584 13.844 -25.0036 953.615 80.8441 -129.159
lfemur -38.3129 11.9208 -12.3264
ltibia 89.794 0 0
lfoot -27.752 26.0259 0
ltoes -38.9474 0 0
rfemur -57.0045 -24.2737 10.0706
rtibia 64.4009 0 0
rfoot 0.958587 6.64135 0
rtoes 8.18794 0 0
lowerback 16.8039 -0.341528 -3.51439
upperback -1.05902 -0.806261 3.07292
thorax -10.5521 -0.0610587 5.58155
lowerneck 5.13369 -14.6044 -15.1464
upperneck 0.0972684 -20.4528 14.9695
head 2.31641 -10.3739 6.20927
lclavicle -2.67654e-14 1.55709e-14 0
lhumerus -51.4669 -45.8476 114.183
lradius 107.054 0 0
lwrist 81.4016 0 0
lhand 8.75616 400.347 0
lfingers 7.12502 0 0
lthumb 33.9441 -652.871 0
rclavicle -2.67654e-14 1.55709e-14 0
rhumerus 10.8745 -13.4572 -58.634
rradius 76.6404 0 0
rwrist 27.1532 0 0
rhand -37.7607 -408.205 0
rfingers 7.12502 0 0
rthumb -10.8071 282.145 0
2557
root 3.67363 13.8578 -25.1418 954.071 80.5183 -128.73
lfemur -38.3318 11.9933 -12.3706
ltibia 89.7488 0 0
lfoot -27.7949 26.0327 0
ltoes -38.922 0 0
rfemur -57.007 -24.2761 10.1305
rtibia 64.5571 0 0
rfoot 0.885226 6.52407 0
rtoes 8.19638 0 0
lowerback 16.8123 -0.334309 -3.53977
upperback -1.05953 -0.802932 3.06951
thorax -10.5577 -0.0579917 5.59168
lowerneck 5.13102 -14.6063 -15.1496
upperneck 0.106217 -20.4568 14.9832
head 2.32203 -10.376 6.21263
lclavicle -2.65313e-14 1.53566e-14 0
lhumerus -51.3216 -45.9103 114.135
lradius 107.006 0 0
lwrist 81.3677 0 0
lhand 8.73112 400.38 0
lfingers 7.12502 0 0
lthumb 33.9202 -652.834 0
rclavicle -2.65313e-14 1.53566e-14 0
rhumerus 11.0914 -13.2726 -58.5098
rradius 76.7407 0 0
rwrist 27.1336 0 0
rhand -37.6905 -408.147 0
rfingers 7.12502 0 0
rthumb -10.7393 282.202 0
2558
root 3.63142 13.8715 -25.28 954.605 80.1394 -128.228
lfemur -38.354 12.0767 -12.4221
ltibia 89.6966 0 0
lfoot -27.8442 26.0409 0
ltoes -38.8925 0 0
rfemur -57.0101 -24.2782 10.2002
rtibia 64.7386 0 0
rfoot 0.800189 6.38736 0
rtoes 8.20611 0 0
lowerback 16.8221 -0.325882 -3.56903
upperback -1.06007 -0.798973 3.06553
thorax -10.5641 -0.0544006 5.60326
lowerneck 5.12795 -14.6085 -15.1532
upperneck 0.116451 -20.4615 14.9993
head 2.32851 -10.3784 6.21659
lclavicle -2.62609e-14 1.51106e-14 0
lhumerus -51.1522 -45.9837 114.078
lradius 106.949 0 0
lwrist 81.3281 0 0
lhand 8.70193 400.418 0
lfingers 7.12502 0 0
lthumb 33.8924 -652.791 0
rclavicle -2.62609e-14 1.51106e-14 0
rhumerus 11.3442 -13.0574 -58.3648
rradius 76.8569 0 0
rwrist 27.1095 0 0
rhand -37.6086 -408.08 0
rfingers 7.12502 0 0
rthumb -10.6602 282.269 0
2559
root 3.58922 13.8853 -25.4182 955.243 79.6939 -127.628
lfemur -38.3813 12.1709 -12.483
ltibia 89.6365 0 0
lfoot -27.8999 26.0518 0
ltoes -38.858 0 0
rfemur -57.0143 -24.2777 10.2822
rtibia 64.9516 0 0
rfoot 0.701406 6.22554 0
rtoes 8.21722 0 0
lowerback 16.8339 -0.315861 -3.60246
upperback -1.06047 -0.793985 3.06072
thorax -10.5716 -0.0500889 5.61609
lowerneck 5.12448 -14.611 -15.1573
upperneck 0.127788 -20.4669 15.0187
head 2.33592 -10.3812 6.22142
lclavicle -2.59506e-14 1.48348e-14 0
lhumerus -50.9518 -46.0718 114.012
lradius 106.882 0 0
lwrist 81.2803 0 0
lhand 8.66734 400.462 0
lfingers 7.12502 0 0
lthumb 33.8594 -652.74 0
rclavicle -2.59506e-14 1.48348e-14 0
rhumerus 11.6427 -12.8028 -58.192
rradius 76.9916 0 0
rwrist 27.0766 0 0
rhand -37.5117 -408 0
rfingers 7.12502 0 0
rthumb -10.5667 282.347 0
